# xmcd CD database file
#
# Track frame offsets:
#	150
#	16425
#	35902
#	54267
#	73462
#	89232
#	108607
#	130290
#	148510
#	169820
#
# Disc length: 2554 seconds
#
# Revision: 4
# Processed by: cddbd v1.5PL3 Copyright (c) Steve Scherf et al.
# Submitted via: CDex 1.51
#
DISCID=9c09f80a
DTITLE=山形由美 - CRYSTAL AIR
DYEAR=1993
DGENRE=Sound Clip
TTITLE0=メイボールの夜
TTITLE1=グリーンノウの伝説
TTITLE2=Goodmorning, robin
TTITLE3=Strawberry Party
TTITLE4=グリーンスリーブス 〜ミセス・ボストンのために・・・〜
TTITLE5=風の結晶
TTITLE6=こわれた騎士人形
TTITLE7=Afternoon Tea
TTITLE8=It's not X'mas....
TTITLE9=グランチェスターの夕暮れ
EXTD=YEAR: 1993.12.22
EXTT0=
EXTT1=
EXTT2=
EXTT3=
EXTT4=
EXTT5=
EXTT6=
EXTT7=
EXTT8=
EXTT9=
PLAYORDER=
